<?xml version="1.0" encoding="UTF-8" standalone="no"?>
<svg width="22px" height="57px" viewBox="0 0 22 57" version="1.1" xmlns="http://www.w3.org/2000/svg" xmlns:xlink="http://www.w3.org/1999/xlink">
    <!-- Generator: Sketch 50.2 (55047) - http://www.bohemiancoding.com/sketch -->
    <title>arrows</title>
    <desc>Created with Sketch.</desc>
    <defs></defs>
    <g id="arrows" stroke="none" stroke-width="1" fill="none" fill-rule="evenodd">
        <path d="M9.97333333,16.4 L0.44,3.4 C-0.146666667,2.6 -0.146666667,1.4 0.44,0.6 C1.02666667,-0.2 1.90666667,-0.2 2.49333333,0.6 L11,12.2 L19.5066667,0.6 C20.0933333,-0.2 20.9733333,-0.2 21.56,0.6 C22.1466667,1.4 22.1466667,2.6 21.56,3.4 L12.0266667,16.4 C11.44,17.2 10.56,17.2 9.97333333,16.4 Z M9.97333333,36.4 L0.44,23.4 C-0.146666667,22.6 -0.146666667,21.4 0.44,20.6 C1.02666667,19.8 1.90666667,19.8 2.49333333,20.6 L11,32.2 L19.5066667,20.6 C20.0933333,19.8 20.9733333,19.8 21.56,20.6 C22.1466667,21.4 22.1466667,22.6 21.56,23.4 L12.0266667,36.4 C11.44,37.2 10.56,37.2 9.97333333,36.4 Z M9.97333333,56.4 L0.44,43.4 C-0.146666667,42.6 -0.146666667,41.4 0.44,40.6 C1.02666667,39.8 1.90666667,39.8 2.49333333,40.6 L11,52.2 L19.5066667,40.6 C20.0933333,39.8 20.9733333,39.8 21.56,40.6 C22.1466667,41.4 22.1466667,42.6 21.56,43.4 L12.0266667,56.4 C11.44,57.2 10.56,57.2 9.97333333,56.4 Z" id="Combined-Shape" fill="#2F2F2F" fill-rule="nonzero"></path>
    </g>
</svg>