<?xml version="1.0" encoding="UTF-8" standalone="no"?>
<svg width="25px" height="60px" viewBox="0 0 25 60" version="1.1" xmlns="http://www.w3.org/2000/svg" xmlns:xlink="http://www.w3.org/1999/xlink">
    <!-- Generator: Sketch 50.2 (55047) - http://www.bohemiancoding.com/sketch -->
    <title>back to top</title>
    <desc>Created with Sketch.</desc>
    <defs></defs>
    <g id="back-to-top" stroke="none" stroke-width="1" fill="none" fill-rule="evenodd">
        <g id="arrows" transform="translate(2.000000, 2.000000)" fill="#2F2F2F">
            <g id="Shape">
                <path d="M12.0266667,0.6 C11.44,-0.2 10.56,-0.2 9.97333333,0.6 L0.44,13.6 C-0.146666667,14.4 -0.146666667,15.6 0.44,16.4 C1.02666667,17.2 1.90666667,17.2 2.49333333,16.4 L11,4.8 L19.5066667,16.4 C20.0933333,17.2 20.9733333,17.2 21.56,16.4 C22.1466667,15.6 22.1466667,14.4 21.56,13.6 L12.0266667,0.6 Z" fill-rule="nonzero"></path>
                <path d="M12.0266667,20.6 C11.44,19.8 10.56,19.8 9.97333333,20.6 L0.44,33.6 C-0.146666667,34.4 -0.146666667,35.6 0.44,36.4 C1.02666667,37.2 1.90666667,37.2 2.49333333,36.4 L11,24.8 L19.5066667,36.4 C20.0933333,37.2 20.9733333,37.2 21.56,36.4 C22.1466667,35.6 22.1466667,34.4 21.56,33.6 L12.0266667,20.6 Z" fill-rule="nonzero"></path>
                <path d="M12.0266667,40.6 C11.44,39.8 10.56,39.8 9.97333333,40.6 L0.44,53.6 C-0.146666667,54.4 -0.146666667,55.6 0.44,56.4 C1.02666667,57.2 1.90666667,57.2 2.49333333,56.4 L11,44.8 L19.5066667,56.4 C20.0933333,57.2 20.9733333,57.2 21.56,56.4 C22.1466667,55.6 22.1466667,54.4 21.56,53.6 L12.0266667,40.6 Z" fill-rule="nonzero"></path>
            </g>
        </g>
    </g>
</svg>