<?xml version="1.0" encoding="UTF-8" standalone="no"?>
<svg width="30px" height="52px" viewBox="0 0 30 52" version="1.1" xmlns="http://www.w3.org/2000/svg" xmlns:xlink="http://www.w3.org/1999/xlink">
    <!-- Generator: Sketch 50.2 (55047) - http://www.bohemiancoding.com/sketch -->
    <title>cook</title>
    <desc>Created with Sketch.</desc>
    <defs></defs>
    <g id="cook" stroke="none" stroke-width="1" fill="none" fill-rule="evenodd">
        <g transform="translate(1.000000, 2.000000)" fill="#2F2F2F" fill-rule="nonzero">
            <path d="M27.9193881,47.401938 L26.952732,43.6903101 C26.2913358,41.1643411 24.2053937,39.2569767 21.661562,38.9476744 L19.3721134,38.6383721 L18.6598405,36.5763566 C18.8124704,36.4217054 18.9651003,36.370155 19.1177302,36.2155039 C21.3563022,35.9062016 23.8492573,35.3906977 25.2738031,34.5658915 C25.5281862,34.4112403 25.6299395,33.9988372 25.426433,33.7410853 C24.7141601,32.503876 24.1036405,30.5965116 23.7983806,29.3077519 C24.0018872,28.7922481 24.2053937,28.2251938 24.2053937,27.4003876 C24.2053937,25.8023256 23.9510106,24.8228682 23.3913676,24.3589147 C23.2896143,24.2042636 23.1369844,24.1527132 23.0352311,24.0496124 C22.9843545,23.4825581 22.8826012,22.9155039 22.780848,22.4 C22.5264648,22.6577519 22.1703283,22.8124031 21.8141919,22.8124031 L19.7791265,22.8124031 C19.982633,24.3073643 20.2878928,26.0085271 21.4580554,27.7096899 C21.6106854,26.7817829 21.9668218,25.9569767 22.2720816,25.3899225 C22.3229582,25.3899225 22.4247115,25.3899225 22.4247115,25.4414729 C22.5264648,25.4930233 22.780848,25.9054264 22.780848,27.451938 C22.780848,29.2562016 21.8650685,29.5655039 21.7633153,29.5655039 C21.4580554,29.6170543 21.2545489,29.8748062 21.2036723,30.1841085 C20.542276,33.9472868 17.4896779,36.6794574 13.9283135,36.6794574 C10.4687023,36.6794574 7.41610425,33.9472868 6.70383136,30.1841085 C6.65295472,29.9263566 6.44944818,29.6686047 6.14418838,29.5655039 C6.04243511,29.5655039 5.12665568,29.2562016 5.12665568,27.451938 C5.12665568,25.9054264 5.38103885,25.5445736 5.53366876,25.3899225 C5.53366876,25.3899225 5.63542203,25.3899225 5.68629866,25.3899225 C5.94068184,25.9569767 6.34769491,26.7817829 6.50032482,27.7096899 C7.67048742,26.0085271 7.97574723,24.3073643 8.12837713,22.8124031 L6.09331174,22.8124031 C5.7371753,22.8124031 5.38103885,22.6577519 5.12665568,22.4 C4.97402578,22.9670543 4.87227251,23.4825581 4.87227251,24.0496124 C4.77051924,24.1011628 4.61788933,24.2042636 4.5670127,24.3073643 C4.00736971,24.8744186 3.70210991,25.8023256 3.70210991,27.4003876 C3.70210991,28.2251938 3.85473981,28.7922481 4.10912298,29.3077519 C3.75298654,30.5965116 3.14246692,32.503876 2.48107067,33.7410853 C2.32844077,34.0503876 2.32844077,34.4112403 2.63370057,34.5658915 C4.10912298,35.3906977 6.55120145,35.9062016 8.78977338,36.2155039 L9.2476631,36.5248062 L8.58626685,38.5868217 L6.29681828,38.896124 C3.70210991,39.2569767 1.66704451,41.1127907 1.00564826,43.6387597 L0.0389922004,47.3503876 C-0.0627610692,47.7627907 0.0389922004,48.1751938 0.293375374,48.4844961 C0.547758548,48.7937984 0.903894992,49 1.31090807,49 L26.9018554,49 C27.3088684,49 27.7158815,48.8453488 27.9193881,48.4844961 C27.9702647,48.2267442 28.072018,47.8143411 27.9193881,47.401938 Z M9.65467618,39.4116279 L10.3669491,37.3496124 C11.4353584,37.8651163 12.6563976,38.1744186 13.8774369,38.1744186 C15.0984761,38.1744186 16.3195153,37.8651163 17.3879247,37.3496124 L18.0493209,39.4116279 C15.5563658,41.2674419 12.1985079,41.2674419 9.65467618,39.4116279 Z" id="Shape"></path>
            <circle id="Oval" cx="11.2" cy="26.6" r="1.4"></circle>
            <circle id="Oval" cx="16.8" cy="26.6" r="1.4"></circle>
            <path d="M13.65,34.3 C15.5939244,34.3 17.2309133,32.9 17.4866928,31 C17.5378487,30.75 17.4355369,30.55 17.2820692,30.35 C17.1286015,30.2 16.872822,30.1 16.6681984,30.1 L10.6318016,30.1 C10.3760221,30.1 10.1713985,30.2 10.0179308,30.35 C9.86446307,30.5 9.76215126,30.75 9.81330716,31 C10.0690867,32.85 11.7060756,34.3 13.65,34.3 Z M10.6318016,30.9 L16.6681984,30.9 C16.6170425,31.2 16.5147307,31.4 16.4124188,31.65 L10.8875812,31.65 C10.7852693,31.4 10.6829575,31.2 10.6318016,30.9 Z" id="Shape"></path>
            <path d="M5.71147648,15.9270784 C3.2260371,15.0508314 1.4,12.628266 1.4,9.79334917 C1.4,6.2368171 4.24050215,3.35035629 7.74040659,3.35035629 C7.89257635,3.35035629 7.99402286,3.40190024 8.09546936,3.40190024 C9.16065767,1.39168646 11.240311,0 13.6750272,0 C16.1097433,0 18.1893967,1.39168646 19.254585,3.40190024 C19.3560315,3.40190024 19.5082012,3.35035629 19.6096477,3.35035629 C23.1095522,3.35035629 25.9500543,6.2368171 25.8993311,9.84489311 C25.8993311,12.67981 24.073294,15.0508314 21.5878546,15.9270784 L21.9936406,21.1845606 C22.0443639,21.4422803 21.7907476,21.7 21.5371313,21.7 L5.76219974,21.7 C5.50858347,21.7 5.30569046,21.4422803 5.30569046,21.1845606 L5.71147648,15.9270784 Z M17.1242084,10.1026128 L17.1242084,16.7002375 C17.1242084,17.0610451 17.4285479,17.3187648 17.7328874,17.3187648 C18.0879502,17.3187648 18.3415664,17.0095012 18.3415664,16.7002375 L18.3415664,10.1026128 C18.3415664,9.74180523 18.0372269,9.48408551 17.7328874,9.48408551 C17.3778246,9.48408551 17.1242084,9.79334917 17.1242084,10.1026128 Z M13.1170714,10.1026128 L13.1170714,16.7002375 C13.1170714,17.0610451 13.4214109,17.3187648 13.7257504,17.3187648 C14.0808132,17.3187648 14.3344294,17.0095012 14.3344294,16.7002375 L14.3344294,10.1026128 C14.3344294,9.74180523 14.0300899,9.48408551 13.7257504,9.48408551 C13.3706876,9.48408551 13.1170714,9.79334917 13.1170714,10.1026128 Z M9.05921116,10.1026128 L9.05921116,16.7002375 C9.05921116,17.0610451 9.31282743,17.3187648 9.6678902,17.3187648 C10.022953,17.3187648 10.2765692,17.0095012 10.2765692,16.7002375 L10.2765692,10.1026128 C10.2765692,9.74180523 10.022953,9.48408551 9.6678902,9.48408551 C9.31282743,9.48408551 9.05921116,9.79334917 9.05921116,10.1026128 Z" id="Shape"></path>
        </g>
    </g>
</svg>