<?xml version="1.0" encoding="UTF-8" standalone="no"?>
<svg width="48px" height="48px" viewBox="0 0 48 48" version="1.1" xmlns="http://www.w3.org/2000/svg" xmlns:xlink="http://www.w3.org/1999/xlink">
    <!-- Generator: Sketch 50.2 (55047) - http://www.bohemiancoding.com/sketch -->
    <title>deliver</title>
    <desc>Created with Sketch.</desc>
    <defs></defs>
    <g id="deliver" stroke="none" stroke-width="1" fill="none" fill-rule="evenodd">
        <g transform="translate(1.000000, 1.000000)" fill="#2F2F2F" fill-rule="nonzero" id="Shape">
            <path d="M6.36923077,40.6923077 C6.36923077,39.3243409 5.26027453,38.2153846 3.89230769,38.2153846 C2.52434085,38.2153846 1.41538462,39.3243409 1.41538462,40.6923077 C1.41538462,42.0602745 2.52434085,43.1692308 3.89230769,43.1692308 C5.26027453,43.1692308 6.36923077,42.0602745 6.36923077,40.6923077 Z M3.06666667,40.6923077 C3.06666667,40.2363187 3.43631875,39.8666667 3.89230769,39.8666667 C4.34829664,39.8666667 4.71794872,40.2363187 4.71794872,40.6923077 C4.71794872,41.1482966 4.34829664,41.5179487 3.89230769,41.5179487 C3.43631875,41.5179487 3.06666667,41.1482966 3.06666667,40.6923077 Z"></path>
            <path d="M45.2333311,23.7666667 L42.9333312,23.7666667 C42.9412603,13.050373 34.4750324,4.24549565 23.7666655,3.83333333 L23.7666655,1.53333333 L25.2999987,1.53333333 L25.2999987,0 L20.699999,0 L20.699999,1.53333333 L22.2333322,1.53333333 L22.2333322,3.83333333 C11.5249653,4.24549565 3.05873744,13.050373 3.06666651,23.7666667 L0.766666628,23.7666667 C0.343248341,23.7666667 0,24.109915 0,24.5333333 C-3.40468377e-16,27.4972615 2.40273839,29.9 5.3666664,29.9 L10.8943328,29.9 L8.85499956,31.5943333 C8.73378373,31.4995707 8.58685957,31.4434724 8.43333291,31.4333333 L0,31.4333333 L0,32.9666667 L7.66666628,32.9666667 L7.66666628,44.4666667 L0,44.4666667 L0,46 L8.43333291,46 C8.8567512,46 9.19999954,45.6567516 9.19999954,45.2333333 L9.19999954,42.9333333 L27.454332,42.9333333 C28.7029986,42.9322076 29.9121919,42.4957051 30.8736651,41.699 L40.1426647,34.0323333 C41.4128966,33.1241041 41.7731513,31.3928798 40.9706646,30.0533333 C40.9706646,29.9996667 40.8939979,29.9536667 40.8633313,29.9 C43.737072,29.7767276 46.0026404,27.4097157 45.9999977,24.5333333 C45.9999977,24.109915 45.6567493,23.7666667 45.2333311,23.7666667 Z M22.9999988,5.36666667 C33.1620377,5.36666667 41.3999979,13.6046273 41.3999979,23.7666667 L4.59999977,23.7666667 C4.59999977,13.6046273 12.83796,5.36666667 22.9999988,5.36666667 Z M39.2073314,32.8056667 L29.8999985,40.5183333 C29.2123627,41.088128 28.3473655,41.3999608 27.454332,41.4 L9.19999954,41.4 L9.19999954,33.327 L12.6499994,30.4366667 C13.0627367,30.0910173 13.583646,29.9011025 14.1219993,29.9 L24.0886655,29.9 C24.7237929,29.9 25.2386654,30.4148725 25.2386654,31.05 C25.2386654,31.6851275 24.7237929,32.2 24.0886655,32.2 L19.1666657,32.2 C17.8964109,32.2000001 16.8666659,33.2297451 16.8666659,34.5 C16.8666659,35.7702549 17.8964109,36.7999999 19.1666657,36.8 L28.3666652,36.8 C28.5264454,36.798968 28.6819106,36.7480398 28.8113319,36.6543333 L37.5666648,30.3906667 C37.8993701,30.157394 38.3137038,30.0720262 38.7115229,30.1547842 C39.109342,30.2375422 39.455257,30.481064 39.6673313,30.8276667 C40.0580168,31.5053765 39.8569667,32.369892 39.2073314,32.8056667 Z M26.5419987,29.9 L35.6116649,29.9 L28.0983319,35.2666667 L19.1666657,35.2666667 C18.7432474,35.2666667 18.3999991,34.9234183 18.3999991,34.5 C18.3999991,34.0765817 18.7432474,33.7333333 19.1666657,33.7333333 L24.1499988,33.7333333 C25.6319628,33.7333333 26.833332,32.5319641 26.833332,31.05 C26.8245483,30.6495525 26.7249318,30.2563296 26.5419987,29.9 Z M40.6333313,28.3666667 L5.3666664,28.3666667 C3.54480345,28.3670385 1.97437248,27.085054 1.60999992,25.3 L44.3899978,25.3 C44.0256252,27.085054 42.4551942,28.3670385 40.6333313,28.3666667 Z"></path>
            <path d="M9.2,14.714511 L10.5822762,15.5692308 C11.0171773,14.9397629 11.5013702,14.3421305 12.0307692,13.7813765 L10.7892038,12.7384615 C10.2105151,13.3604834 9.679431,14.0208445 9.2,14.714511 Z"></path>
            <path d="M12.3195077,12.7384615 C15.1138186,10.0789837 18.8080681,8.59954572 22.6461538,8.60294423 L22.6461538,7.07692308 C18.4325083,7.08858543 14.3822947,8.72613812 11.3230769,11.6549865 L12.3195077,12.7384615 Z"></path>
        </g>
    </g>
</svg>