<?xml version="1.0" encoding="UTF-8" standalone="no"?>
<svg width="27px" height="27px" viewBox="0 0 27 27" version="1.1" xmlns="http://www.w3.org/2000/svg" xmlns:xlink="http://www.w3.org/1999/xlink">
    <!-- Generator: Sketch 50.2 (55047) - http://www.bohemiancoding.com/sketch -->
    <title>github</title>
    <desc>Created with Sketch.</desc>
    <defs></defs>
    <g id="github" stroke="none" stroke-width="1" fill="none" fill-rule="evenodd">
        <g fill="#000000" id="Shape">
            <g>
                <path d="M0,13.8424881 C0,19.9573158 3.86779827,25.145912 9.23232757,26.9762815 C9.90776267,27.1037446 10.1539028,26.6763185 10.1539028,26.3092249 C10.1539028,25.9803702 10.1423003,25.1102224 10.1356702,23.9554071 C6.38058258,24.7915647 5.58829307,22.0995449 5.58829307,22.0995449 C4.97418583,20.5003084 4.08907579,20.0745818 4.08907579,20.0745818 C2.86334756,19.2154808 4.18189631,19.2333257 4.18189631,19.2333257 C5.53691028,19.3310473 6.24963934,20.6600621 6.24963934,20.6600621 C7.4546487,22.7750991 9.40968108,22.1641262 10.1787655,21.8097789 C10.3014212,20.9149883 10.6503269,20.3057148 11.0356978,19.9590153 C8.03809202,19.6097665 4.88633782,18.4226606 4.88633782,13.1184979 C4.88633782,11.606786 5.41259707,10.3712441 6.27615949,9.40337464 C6.13775745,9.05327611 5.67448356,7.64608395 6.40876024,5.74093612 C6.40876024,5.74093612 7.5424967,5.36789424 10.1207526,7.15917507 C11.1981338,6.85241398 12.3525891,6.69860856 13.5004144,6.69351004 C14.6474109,6.69860856 15.8018662,6.85241398 16.8809049,7.15917507 C19.4575033,5.36789424 20.5895822,5.74093612 20.5895822,5.74093612 C21.3255164,7.64608395 20.8622425,9.05327611 20.7238405,9.40337464 C21.5890604,10.3712441 22.1111759,11.606786 22.1111759,13.1184979 C22.1111759,18.4354069 18.9552779,19.6055178 15.9477271,19.9488183 C16.4325486,20.3762444 16.863501,21.2208996 16.863501,22.5116755 C16.863501,24.3624391 16.8477547,25.8554564 16.8477547,26.3092249 C16.8477547,26.6797175 17.0905798,27.1096929 17.77596,26.974582 C23.1355167,25.1408135 27,19.9564661 27,13.8424881 C27,6.19725386 20.9550631,0 13.4987569,0 C6.04493692,0 0,6.19725386 0,13.8424881 Z"></path>
            </g>
        </g>
    </g>
</svg>