<?xml version="1.0" encoding="UTF-8" standalone="no"?>
<svg width="24px" height="24px" viewBox="0 0 24 24" version="1.1" xmlns="http://www.w3.org/2000/svg" xmlns:xlink="http://www.w3.org/1999/xlink">
    <!-- Generator: Sketch 50.2 (55047) - http://www.bohemiancoding.com/sketch -->
    <title>instagram</title>
    <desc>Created with Sketch.</desc>
    <defs></defs>
    <g id="instagram" stroke="none" stroke-width="1" fill="none" fill-rule="evenodd">
        <g fill="#000000" id="Shape">
            <g>
                <path d="M19.3617121,0 L4.63828786,0 C2.08137347,0 0,2.07996237 0,4.63828786 L0,19.3617121 C0,21.9200376 2.08137347,24 4.63828786,24 L19.3617121,24 C21.9186265,24 24,21.9200376 24,19.3617121 L24,4.63828786 C24,2.07996237 21.9186265,0 19.3617121,0 L19.3617121,0 Z M20.6923801,2.76716839 L21.2229539,2.76434619 L21.2229539,6.83254939 L17.1674506,6.84524929 L17.1533396,2.7770461 L20.6923801,2.76716839 L20.6923801,2.76716839 Z M8.5752587,9.53621825 C9.34289746,8.47224835 10.5903104,7.77516463 12,7.77516463 C13.4096896,7.77516463 14.6571025,8.47224835 15.4247413,9.53621825 C15.925682,10.2304798 16.2248354,11.0799624 16.2248354,12 C16.2248354,14.3283161 14.3297272,16.2234243 12,16.2234243 C9.67168391,16.2234243 7.77657573,14.3283161 7.77657573,12 C7.77657573,11.0799624 8.07572907,10.2304798 8.5752587,9.53621825 L8.5752587,9.53621825 Z M21.6618062,19.3617121 C21.6618062,20.6302916 20.6302916,21.6618062 19.3617121,21.6618062 L4.63828786,21.6618062 C3.36970837,21.6618062 2.33819379,20.6302916 2.33819379,19.3617121 L2.33819379,9.53621825 L5.92238946,9.53621825 C5.61194732,10.2982126 5.43838194,11.1293509 5.43838194,12 C5.43838194,15.6180621 8.38193791,18.5630292 12,18.5630292 C15.6194732,18.5630292 18.5630292,15.6180621 18.5630292,12 C18.5630292,11.1293509 18.3866416,10.2982126 18.0790216,9.53621825 L21.6618062,9.53621825 L21.6618062,19.3617121 L21.6618062,19.3617121 Z"></path>
            </g>
        </g>
    </g>
</svg>