<?xml version="1.0" encoding="UTF-8" standalone="no"?>
<svg width="58px" height="52px" viewBox="0 0 58 52" version="1.1" xmlns="http://www.w3.org/2000/svg" xmlns:xlink="http://www.w3.org/1999/xlink">
    <!-- Generator: Sketch 50.2 (55047) - http://www.bohemiancoding.com/sketch -->
    <title>logo</title>
    <desc>Created with Sketch.</desc>
    <defs>
        <linearGradient x1="50%" y1="-2.48949813e-15%" x2="50%" y2="86.3404093%" id="linearGradient-1">
            <stop stop-color="#C0C0C0" offset="0%"></stop>
            <stop stop-color="#000000" offset="100%"></stop>
        </linearGradient>
    </defs>
    <g id="logo" stroke="none" stroke-width="1" fill="none" fill-rule="evenodd">
        <g transform="translate(1.000000, 1.000000)" fill="url(#linearGradient-1)" id="Combined-Shape-1">
            <path d="M13.0827777,16.4705882 L17.3485416,16.4705882 L17.3485416,27.6470588 L13.0827777,27.6470588 L13.0827777,16.4705882 Z M13.0827777,13.5294118 L20,4.70588235 L33.1420244,18.0279306 L51.169955,0 L55.8823529,0 L55.8823529,37.6470588 L44.7058824,50 L44.7058824,12.6470588 L30,27.6470588 L18.9691312,16.4705882 L18.9705882,16.4705882 L16.2941248,13.5294118 L13.0827777,13.5294118 Z M17.3485416,30.5882353 L17.3485416,35.0369701 C17.5654646,36.0063692 17.5584684,37.0215304 17.3485416,38.0259263 L17.3485416,38.0871773 L17.3354852,38.0871773 C16.8101231,40.5046901 15.1105129,42.8531133 12.5297275,44.3431305 C8.16882419,46.8608992 2.94330177,45.9742481 0.858196528,42.3627399 C-1.22690872,38.7512317 0.617990152,33.782471 4.97889348,31.2647023 C5.43292783,31.0025654 5.89633455,30.7773321 6.36459359,30.5882353 L17.3485416,30.5882353 Z M12.4945424,34.1874176 C12.128852,33.8882881 11.7366951,33.6922097 11.3180718,33.5991823 C10.8994485,33.5061549 10.4092525,33.5061549 9.8474836,33.5991823 C9.20715836,33.6932407 8.71696228,33.7912799 8.37689536,33.8933 C7.86679498,34.0463301 7.78866007,34.0463301 6.90630712,34.4815353 C6.25014081,34.8990956 5.52784065,35.5335841 5.14160124,35.9521235 C3.98578267,37.2045996 3.78301621,37.929243 3.67101301,38.2407676 C3.37689536,39.1874176 3.37689536,39.4815353 3.37689536,39.7756529 C3.37689536,40.6563516 3.37689536,40.6580058 3.67101301,41.5403588 C3.92711533,42.0525634 4.3192722,42.4447203 4.8474836,42.7168294 C6.22003261,43.1089862 7.49454242,43.010947 8.67101301,42.4227117 C10.4357189,41.5403588 11.6121895,40.3638882 11.6121895,40.3638882 C11.6121895,40.3638882 12.7886601,39.4815353 13.0827777,37.2756529 C13.2788561,35.8050647 13.0827777,34.7756529 12.4945424,34.1874176 Z"></path>
        </g>
    </g>
</svg>