<?xml version="1.0" encoding="UTF-8" standalone="no"?>
<svg width="24px" height="20px" viewBox="0 0 24 20" version="1.1" xmlns="http://www.w3.org/2000/svg" xmlns:xlink="http://www.w3.org/1999/xlink">
    <!-- Generator: Sketch 50.2 (55047) - http://www.bohemiancoding.com/sketch -->
    <title>mail</title>
    <desc>Created with Sketch.</desc>
    <defs></defs>
    <g id="mail" stroke="none" stroke-width="1" fill="none" fill-rule="evenodd">
        <g fill="#000000" id="Shape">
            <g>
                <path d="M2.30350685,6.16489705 C1.7500274,5.76721237 1.22761644,5.22028697 0.73660274,4.5242952 C0.245589041,3.82830343 0,3.18182611 0,2.58521192 C0,1.84667957 0.185260274,1.2310616 0.555780822,0.73853235 C0.92630137,0.24617745 1.45528767,0 2.14273973,0 L21.8570959,0 C22.4372055,0 22.9395616,0.222466308 23.3636712,0.667573269 C23.7877808,1.11268023 24,1.64775006 24,2.27278275 C24,3.02090416 23.7813699,3.73589972 23.3436164,4.41742072 C22.9060274,5.09929041 22.361589,5.68178252 21.7098082,6.16454836 C18.3527671,8.63626061 16.2632877,10.175044 15.4420274,10.7810729 C15.3527671,10.847499 15.1629041,10.9916837 14.8727671,11.2143243 C14.5826301,11.436965 14.3416438,11.617065 14.1496438,11.7542759 C13.9576438,11.8914867 13.7255342,12.0452604 13.4533151,12.2157714 C13.1810959,12.3859337 12.9241644,12.5140785 12.6831781,12.5989853 C12.4420274,12.6844152 12.2187945,12.7267814 12.0134795,12.7267814 L12,12.7267814 L11.9865205,12.7267814 C11.7812055,12.7267814 11.5579726,12.6844152 11.3168219,12.5989853 C11.0758356,12.5140785 10.8190685,12.3861081 10.5466849,12.2157714 C10.2743014,12.0454347 10.0421918,11.8914867 9.85019178,11.7542759 C9.65835616,11.617065 9.41720548,11.436965 9.12706849,11.2143243 C8.83693151,10.991858 8.64723288,10.847499 8.5579726,10.7810729 C7.74542466,10.1752184 6.57583562,9.31115644 5.0490411,8.18906149 C3.52224658,7.06696654 2.60712329,6.39207071 2.30350685,6.16489705 Z M22.6606027,7.68467667 C23.1696986,7.3154105 23.616,6.90325505 24,6.44890772 L24,17.7270429 C24,18.3522499 23.790411,18.8869711 23.3705753,19.3322524 C22.9509041,19.7775337 22.446411,20 21.8572603,20 L2.14290411,20 C1.55358904,20 1.04909589,19.7775337 0.629424658,19.3322524 C0.209753425,18.8871454 0,18.3522499 0,17.7270429 L0,6.44890772 C0.392876712,6.91284412 0.843780822,7.32499956 1.35271233,7.68467667 C4.58482192,10.0141221 6.80350685,11.6477501 8.00893151,12.5852119 C8.51786301,12.9828966 8.93079452,13.2932336 9.24772603,13.5155256 C9.56465753,13.7381662 9.98663014,13.9653399 10.5133151,14.1973953 C11.04,14.4294506 11.5311781,14.5453911 11.9865205,14.5453911 L12,14.5453911 L12.0136438,14.5453911 C12.4689863,14.5453911 12.96,14.4294506 13.4866849,14.1973953 C14.0135342,13.9653399 14.4353425,13.7381662 14.752274,13.5155256 C15.0693699,13.2932336 15.4823014,12.9828966 15.9912329,12.5852119 C17.5088219,11.420402 19.732274,9.78677406 22.6606027,7.68467667 Z"></path>
            </g>
        </g>
    </g>
</svg>