<?xml version="1.0" encoding="UTF-8" standalone="no"?>
<svg width="50px" height="50px" viewBox="0 0 50 50" version="1.1" xmlns="http://www.w3.org/2000/svg" xmlns:xlink="http://www.w3.org/1999/xlink">
    <!-- Generator: Sketch 50.2 (55047) - http://www.bohemiancoding.com/sketch -->
    <title>skills</title>
    <desc>Created with Sketch.</desc>
    <defs></defs>
    <g id="skills" stroke="none" stroke-width="1" fill="none" fill-rule="evenodd">
        <path d="M47.6061381,28.0184576 C45.7894572,27.3990686 43.9727763,26.8359877 42.1560954,26.3855229 C42.1560954,25.9350582 42.1560954,25.4845934 42.1026637,25.0341287 C42.1026637,22.4439564 42.5835498,19.0654708 40.5531417,17.2636119 C39.4310741,16.2500662 38.1487111,15.3491367 36.9197799,14.4482072 C36.4923256,14.1666667 36.0648713,13.8288182 35.5839851,13.4909696 C36.118303,13.4346615 36.5457574,12.9278887 36.5457574,12.3648078 C36.5457574,9.6620193 36.3320302,6.95923084 36.4388938,4.31275047 C36.4923256,3.69336144 35.9580077,3.2428967 35.370258,3.18658861 C29.3324656,2.96135623 23.2412414,2.96135623 17.1500172,3.07397242 C16.0279496,3.07397242 15.653927,4.36905856 16.0813814,5.15737186 C15.9745178,7.2407713 15.921086,9.26786265 15.9745178,11.3512621 C16.0279496,12.533732 16.4019721,13.096813 17.0431536,13.3220453 C16.3485403,13.8851263 15.7073588,14.5608234 15.0661773,15.1239043 C13.5166554,16.4189905 12.0205652,17.7140766 10.5244751,19.0654708 C9.7229982,19.797476 10.4176115,21.1488703 11.3259519,21.1488703 C18.7529709,21.0925622 26.1799899,21.0925622 33.6070089,21.0362541 C35.103099,21.0362541 35.103099,18.558698 33.6070089,18.558698 C27.2486257,18.6150061 20.8902426,18.6150061 14.5318594,18.6713142 C15.2264727,18.0519252 15.921086,17.4325361 16.6156993,16.756839 C17.6843351,15.7996014 19.0201299,14.898672 19.6078796,13.5472777 C23.9892864,13.6035858 28.3172615,13.5472777 32.6986684,13.5472777 C33.820736,15.9122176 36.8129163,17.2073038 38.5761654,19.0654708 C39.6448013,20.1916327 39.3776423,21.4304107 39.4310741,22.9507293 C39.4310741,23.9079668 39.4845059,24.8652044 39.4845059,25.7661339 C38.2555747,25.5409015 36.9732117,25.3719773 35.6908487,25.3719773 C31.7368962,25.2593611 27.7295118,25.9350582 24.0427182,27.5116848 C23.0275142,27.9621495 22.065742,28.4689224 21.1039697,28.9756952 C20.9436743,28.9193871 20.7299472,28.863079 20.51622,28.863079 C19.3407206,28.9193871 18.1652212,28.9193871 16.9897218,28.9193871 C16.6691311,27.5679929 15.8142224,26.3292148 14.9593137,25.4282853 C13.9441097,24.3584316 12.2342924,22.8381131 10.7382022,22.7254969 C8.17347626,22.5002645 4.43325087,26.0476744 4.00579654,28.9193871 C3.15088788,28.9756952 2.24254743,29.1446195 1.49450236,29.5387761 C1.38763878,29.5950842 1.33420698,29.6513923 1.28077519,29.7077004 C1.06704803,29.8766247 0.960184446,30.1018571 1.01361624,30.3833975 C1.49450236,34.324964 5.28815953,36.2394392 8.65436238,36.746212 C12.9823375,37.3656011 16.4019721,35.3948178 19.9284703,33.0298779 C23.7755593,30.3833975 28.1569662,28.5252305 32.805532,28.4689224 C35.0496672,28.4126143 37.2938025,28.6941547 39.4845059,29.2572357 C39.5379377,31.6221756 39.5913695,33.9871155 39.5913695,36.3520554 C39.5913695,37.6471415 39.8585284,39.1111519 39.6448013,40.4062381 C39.4310741,41.8139404 38.3090065,42.3207132 37.1869389,42.8837942 C32.4849412,45.3613503 26.8746032,45.2487341 21.7451512,44.7419612 C19.3407206,44.5167289 16.6156993,44.2351884 14.371564,43.1653346 C13.1426328,42.5459456 12.9289057,41.1382433 13.0357693,39.8431572 C13.1960646,37.8723739 10.2573161,37.8723739 10.0970207,39.8431572 C10.1504525,41.0256271 10.3107479,42.3770213 10.8450658,43.5031832 C11.7534063,45.4739665 13.5166554,46.0933555 15.4401999,46.6564364 C20.2490611,48.0078306 25.7525356,48.2893711 30.6682603,47.7262902 C33.0726909,47.4447497 35.4771215,46.8816688 37.7212568,45.8681231 C39.4845059,45.0798098 41.9958001,43.8410318 42.4232544,41.7013242 C42.6904134,40.5751624 42.4766862,39.2800762 42.4232544,38.0976063 C42.3698226,36.6899039 42.3698226,35.3385097 42.3163908,33.9308074 C42.262959,32.6357212 42.262959,31.3969432 42.2095272,30.1018571 C43.545322,30.6086299 44.827685,31.2280189 46.0031844,31.903716 C48.5679104,33.3114184 50.3845913,28.9193871 47.6061381,28.0184576 Z M32.9123956,11.294954 C32.9123956,10.1687921 32.9123956,9.04263028 32.805532,7.91646842 C32.7521002,7.07184702 31.523169,6.73399847 31.3094418,7.69123605 C31.0957147,8.873706 31.0422829,10.112484 31.0957147,11.294954 C30.4011014,11.294954 29.7064881,11.294954 29.0653066,11.294954 C29.0653066,10.1687921 29.0653066,8.98632219 28.958443,7.86016033 C28.9050112,7.01553893 27.67608,6.67769037 27.4623529,7.63492795 C27.2486257,8.81739791 27.1951939,10.056176 27.2486257,11.2386459 C26.5540124,11.2386459 25.8593991,11.2386459 25.2182176,11.2386459 C25.2182176,10.112484 25.2182176,8.93001409 25.1113541,7.80385223 C25.0579223,6.95923084 23.8289911,6.62138228 23.6152639,7.57861986 C23.4015367,8.76108981 23.348105,9.99986786 23.4015367,11.2386459 C22.8672188,11.2386459 22.3329009,11.2386459 21.798583,11.2386459 C21.6382876,11.2386459 21.5314241,11.2386459 21.3711287,11.2386459 C21.3711287,10.112484 21.3711287,8.93001409 21.2642651,7.80385223 C21.2108333,6.95923084 19.9819021,6.62138228 19.7681749,7.57861986 C19.5544478,8.76108981 19.501016,9.99986786 19.5544478,11.2386459 C19.1804252,11.2386459 18.8598345,11.2386459 18.485812,11.2386459 C18.3255166,11.2386459 18.1652212,11.2386459 17.951494,11.2386459 C17.8446305,10.9007973 17.8980623,10.3377164 17.8980623,9.99986786 C17.8446305,8.59216554 17.7911987,7.12815512 17.7377669,5.72045279 C23.2946732,5.60783661 28.8515794,5.10106377 34.3550539,5.32629614 C34.3016221,7.2970794 34.4084857,9.26786265 34.4619175,11.2386459 C33.9275996,11.294954 33.3932817,11.294954 32.9123956,11.294954 Z M10.3107479,25.3719773 C11.3259519,25.2593611 12.5548831,26.4981391 13.2494964,27.2301443 C13.7303825,27.7932253 14.0509733,28.3563062 14.3181322,28.9756952 C13.4097918,28.9756952 12.5014513,28.9756952 11.5931109,28.9193871 C9.82986178,28.9193871 8.06661267,28.863079 6.30336356,28.863079 C6.24993177,28.863079 6.24993177,28.863079 6.19649998,28.863079 C7.37199939,27.3427605 8.494067,25.5409015 10.3107479,25.3719773 Z M13.4632236,33.6492669 C10.1504525,34.7754288 5.92934103,34.0997317 3.57834221,31.284327 C4.43325087,31.3969432 5.28815953,31.3969432 6.14306819,31.4532513 C8.01318088,31.5658675 9.82986178,31.6784837 11.6999745,31.7910999 C13.3029282,31.903716 14.9593137,32.0163322 16.5622675,32.1289484 C15.5470634,32.6920293 14.5318594,33.2551103 13.4632236,33.6492669 Z" id="Shape" fill="#2F2F2F" fill-rule="nonzero"></path>
    </g>
</svg>